<?xml version="1.0" standalone="no"?>
<!DOCTYPE svg PUBLIC "-//W3C//DTD SVG 20010904//EN"
 "http://www.w3.org/TR/2001/REC-SVG-20010904/DTD/svg10.dtd">
<svg version="1.0" xmlns="http://www.w3.org/2000/svg"
 width="700.000000pt" height="700.000000pt" viewBox="0 0 700.000000 700.000000"
 preserveAspectRatio="xMidYMid meet">
<metadata>
Created by potrace 1.14, written by Peter Selinger 2001-2017
</metadata>
<g transform="translate(0.000000,700.000000) scale(0.100000,-0.100000)"
fill="#000000" stroke="none">
<path d="M3410 6681 c-36 -21 -90 -52 -121 -69 -30 -17 -179 -101 -330 -186
l-274 -154 -1 -206 c-1 -114 1 -208 5 -210 3 -2 177 95 386 215 209 120 390
224 403 231 17 8 28 9 40 2 9 -6 38 -23 64 -37 50 -27 378 -216 432 -247 84
-50 264 -150 269 -150 3 0 3 53 1 118 -3 64 -6 151 -8 192 -1 42 -5 81 -10 88
-4 7 -24 21 -44 32 -20 11 -44 25 -52 30 -18 12 -222 129 -288 166 -26 15
-124 71 -218 125 -94 55 -175 99 -180 98 -5 -1 -38 -18 -74 -38z"/>
<path d="M3339 5786 c-2 -2 -38 -7 -79 -10 -94 -9 -96 -9 -240 -37 -349 -68
-765 -277 -1034 -519 -322 -289 -554 -648 -674 -1045 -33 -105 -71 -279 -79
-355 -2 -25 -8 -70 -13 -100 -8 -53 -5 -428 4 -480 2 -14 7 -46 10 -70 5 -39
49 -249 60 -290 52 -188 175 -461 286 -630 250 -381 617 -688 1030 -860 183
-77 409 -138 570 -156 25 -3 56 -8 70 -10 45 -10 393 -13 465 -4 320 38 549
103 797 225 94 47 223 120 238 135 3 3 25 18 50 35 163 107 368 299 506 475
255 324 425 745 471 1170 15 138 8 474 -11 575 -2 11 -11 61 -20 110 -79 424
-299 841 -612 1160 -367 373 -828 600 -1364 670 -51 7 -425 16 -431 11z m-259
-380 c0 -5 -8 -14 -89 -101 -131 -141 -303 -381 -406 -565 -32 -58 -60 -107
-62 -109 -13 -17 -243 124 -342 207 l-54 46 55 51 c207 194 500 357 798 445
41 12 80 23 85 25 6 2 11 4 13 4 1 1 2 -1 2 -3z m914 -16 c267 -60 593 -239
819 -450 l58 -54 -23 -18 c-100 -80 -343 -238 -364 -238 -5 0 -33 48 -63 106
-99 195 -252 406 -422 581 -80 82 -93 100 -62 89 9 -4 35 -11 57 -16z m-611
-520 c-1 -247 -2 -454 -2 -458 -3 -22 -324 29 -514 82 -49 14 -90 26 -92 28
-10 10 157 308 177 316 4 2 8 8 8 13 0 8 72 111 90 129 3 3 23 28 45 55 42 53
273 285 284 285 3 0 5 -202 4 -450z m390 305 c145 -148 284 -337 396 -540 l61
-110 -40 -18 c-56 -25 -184 -56 -299 -73 -25 -4 -55 -8 -65 -10 -11 -2 -59 -7
-108 -10 -48 -4 -91 -7 -95 -8 -5 -1 -8 816 -4 904 1 15 40 -18 154 -135z
m-1759 -528 c91 -78 213 -164 308 -218 51 -29 94 -53 95 -53 1 -1 -11 -44 -28
-96 -16 -52 -38 -133 -49 -180 -21 -94 -24 -112 -45 -260 -3 -21 -8 -75 -20
-204 -1 -18 -15 -19 -346 -18 -407 0 -391 0 -386 10 3 4 8 36 11 70 25 241
103 502 209 702 71 134 176 290 195 290 3 0 28 -20 56 -43z m3058 -4 c210
-279 333 -603 363 -955 l5 -68 -27 -1 c-98 -3 -694 -1 -697 2 -2 2 -7 33 -10
69 -15 154 -18 180 -36 280 -30 164 -60 287 -85 348 -8 19 -15 40 -15 47 0 7
33 30 73 51 65 33 204 119 217 134 3 3 25 21 50 40 25 19 61 49 80 67 19 18
37 33 40 33 3 0 22 -21 42 -47z m-2312 -374 c158 -56 423 -105 580 -108 l45
-1 -2 -257 c-1 -142 -2 -261 -2 -265 -1 -5 -191 -8 -422 -8 l-421 0 7 78 c3
42 8 88 10 102 11 76 16 107 19 120 1 8 6 33 10 55 10 49 76 297 83 308 3 5
12 5 22 2 9 -4 41 -16 71 -26z m1581 -26 c21 -53 68 -229 83 -313 18 -95 22
-132 32 -240 l6 -75 -418 1 -419 1 -5 29 c-7 39 -4 483 3 490 3 4 25 7 49 9
59 4 142 14 208 25 30 6 71 12 90 14 49 7 203 43 280 65 84 25 79 25 91 -6z
m-971 -862 c13 -1 15 -37 15 -261 0 -166 -4 -260 -10 -261 -5 -1 -28 -2 -50
-4 -52 -3 -152 -14 -190 -20 -16 -3 -42 -7 -56 -9 -80 -13 -252 -51 -322 -72
-44 -13 -82 -24 -84 -24 -8 0 -63 173 -77 240 -2 8 -7 33 -11 55 -5 22 -9 42
-10 45 0 3 -5 30 -9 60 -4 30 -9 63 -11 72 -2 9 -6 52 -10 96 -6 72 -5 81 11
84 14 2 763 2 814 -1z m-1079 -48 c1 -21 3 -47 4 -58 1 -11 5 -51 9 -90 4 -38
11 -88 16 -110 5 -22 11 -60 15 -85 8 -56 27 -134 67 -273 17 -59 29 -109 27
-110 -2 -1 -31 -15 -64 -32 -112 -56 -295 -186 -383 -272 -12 -11 -19 -6 -47
30 -200 262 -332 612 -370 985 l-6 52 366 0 365 0 1 -37z m2165 -45 c-4 -46
-8 -90 -11 -98 -2 -8 -6 -35 -9 -60 -6 -44 -11 -71 -21 -120 -3 -14 -7 -36
-10 -49 -10 -53 -68 -252 -74 -256 -4 -2 -37 7 -74 20 -139 51 -364 97 -537
110 -41 4 -82 8 -90 10 -13 4 -15 40 -13 252 1 137 2 254 2 261 1 9 92 12 422
12 l421 0 -6 -82z m979 25 c-4 -32 -8 -69 -10 -83 -3 -14 -7 -43 -10 -65 -10
-63 -54 -241 -82 -324 -51 -155 -178 -396 -269 -507 l-33 -41 -55 52 c-69 66
-207 160 -316 216 -47 24 -87 45 -89 46 -2 2 10 49 27 105 29 95 47 166 58
228 3 14 7 32 9 40 2 8 7 38 10 65 4 28 8 57 11 65 5 18 22 190 23 238 l1 22
365 0 366 0 -6 -57z m-2052 -1171 c0 -249 -3 -453 -8 -453 -12 -2 -187 173
-264 264 -111 133 -203 270 -295 439 l-47 87 93 30 c84 26 167 45 253 57 17 3
39 6 50 9 11 2 56 7 100 11 44 4 81 8 83 9 2 2 11 2 19 1 15 -2 16 -48 16
-454z m422 432 c119 -16 250 -44 357 -76 l67 -20 -40 -81 c-108 -215 -252
-410 -433 -589 -71 -71 -131 -126 -134 -123 -4 3 -7 856 -3 900 1 12 27 11
186 -11z m-1231 -301 c94 -191 262 -420 443 -606 84 -86 86 -83 -37 -50 -286
77 -570 236 -788 439 l-63 59 58 48 c97 81 296 206 328 207 6 0 32 -44 59 -97z
m1977 67 c86 -44 184 -108 258 -170 l64 -53 -79 -73 c-43 -41 -82 -74 -85 -74
-3 0 -17 -9 -30 -21 -70 -61 -284 -185 -409 -239 -145 -61 -350 -126 -350
-110 0 4 3 10 8 12 15 7 134 142 224 254 104 131 279 404 309 481 11 30 18 29
90 -7z"/>
<path d="M1093 5356 c-210 -122 -387 -227 -395 -233 -21 -18 -19 -907 2 -927
11 -10 204 -123 360 -212 3 -1 5 39 4 89 -1 51 -5 261 -8 467 l-6 375 383 222
c210 122 391 228 401 236 16 12 13 15 -36 40 -29 15 -73 39 -98 54 -25 14 -74
42 -110 61 -36 19 -69 39 -74 43 -6 5 -17 9 -25 9 -9 -1 -188 -101 -398 -224z"/>
<path d="M5400 5523 c-52 -30 -129 -73 -170 -95 -41 -22 -76 -41 -78 -43 -4
-4 71 -52 479 -309 164 -102 299 -192 301 -199 2 -6 4 -213 4 -459 -1 -247 0
-448 1 -448 5 0 340 214 351 224 9 9 14 104 18 397 3 211 7 412 8 446 3 67 0
71 -69 109 -35 19 -526 304 -638 370 -59 35 -108 64 -110 64 -1 -1 -45 -26
-97 -57z"/>
<path d="M858 2952 l-187 -107 -1 -460 0 -460 116 -67 c63 -38 119 -68 124
-68 6 0 10 -4 10 -10 0 -5 4 -10 9 -10 5 0 129 -70 275 -155 146 -85 271 -155
277 -155 6 0 91 42 189 92 136 71 176 96 168 105 -6 7 -14 13 -18 13 -5 0 -62
33 -127 73 -65 40 -125 76 -133 80 -8 4 -125 73 -260 155 l-245 149 -5 466 -5
466 -187 -107z"/>
<path d="M5936 2983 c4 -101 14 -437 20 -628 3 -110 7 -212 8 -227 2 -14 0
-31 -4 -37 -5 -9 -269 -168 -415 -251 -46 -26 -161 -92 -218 -125 -29 -17 -76
-44 -104 -60 -29 -17 -53 -32 -53 -35 0 -5 27 -21 217 -122 62 -33 115 -64
119 -69 3 -5 11 -9 19 -9 10 0 302 170 740 431 l50 30 0 453 0 452 -183 120
c-101 65 -187 120 -191 122 -3 1 -6 -19 -5 -45z"/>
<path d="M3904 929 c-208 -122 -389 -226 -401 -231 -18 -9 -64 14 -310 152
-467 264 -495 280 -502 280 -4 0 -6 -39 -4 -87 6 -203 11 -315 15 -317 3 -3
139 -80 208 -119 25 -14 149 -85 275 -157 127 -73 245 -141 263 -151 18 -11
38 -19 45 -19 7 0 188 101 402 224 l390 224 2 211 c2 116 1 211 0 211 -2 0
-174 -100 -383 -221z"/>
</g>
</svg>
